#!OML:ASF F:\VICON\USERDATA\INSTALL\rory3\rory3.ASF
:FULLY-SPECIFIED
:DEGREES
689
root 0.084037 17.9422 -0.878789 1.73051 -7.60077 2.83208
lowerback -0.208888 -1.68027 -5.28237
upperback 0.327214 -2.2308 2.22816
thorax 0.746327 -1.1502 5.24629
lowerneck -21.9096 0.935431 -9.78315
upperneck 5.87544 3.10447 6.98924
head 4.98637 1.80783 4.11585
rclavicle 3.03147e-015 1.74931e-014
rhumerus -33.9436 -5.77103 -76.7065
rradius 34.7919
rwrist 18.9253
rhand -22.275 7.14841
rfingers 7.12502
rthumb 4.14319 -22.7911
lclavicle 3.03147e-015 1.74931e-014
lhumerus 40.3173 -5.42016 56.1217
lradius 101.733
lwrist -1.10755
lhand -30.2681 17.1221
lfingers 7.12502
lthumb -3.57639 47.0718
rfemur -8.23556 6.49776 12.8882
rtibia 26.9793
rfoot -17.5755 -3.02522
rtoes 3.47062
lfemur 0.0290506 -2.64703 -23.6793
ltibia 12.9595
lfoot -10.6024 3.91422
ltoes -11.2632
690
root 0.0852099 17.944 -0.886359 1.75937 -7.61348 2.74026
lowerback -0.0374924 -1.65335 -5.20748
upperback 0.240168 -2.20444 2.26132
thorax 0.555255 -1.12875 5.24596
lowerneck -21.624 0.910143 -9.82428
upperneck 5.99824 3.05829 6.94818
head 4.9859 1.77555 4.10138
rclavicle -4.12478e-015 8.74653e-015
rhumerus -34.1821 -5.77143 -76.6307
rradius 34.8679
rwrist 18.9278
rhand -22.3539 7.52165
rfingers 7.12502
rthumb 4.06699 -22.4193
lclavicle -4.12478e-015 8.74653e-015
lhumerus 39.6178 -5.86771 56.2643
lradius 102.02
lwrist -1.15219
lhand -30.1842 17.5541
lfingers 7.12502
lthumb -3.49536 47.5052
rfemur -8.28084 6.57543 12.9947
rtibia 26.945
rfoot -17.5591 -3.09981
rtoes 3.57845
lfemur -0.0523084 -2.59239 -23.5679
ltibia 13.0218
lfoot -10.5959 3.8403
ltoes -11.1191
691
root 0.0871484 17.9451 -0.891103 1.80926 -7.60395 2.76443
lowerback 0.0846583 -1.65266 -5.21108
upperback 0.163871 -2.20997 2.23452
thorax 0.40773 -1.125 5.22531
lowerneck -21.6213 0.895609 -9.87222
upperneck 6.35872 3.03642 7.01718
head 5.10001 1.76347 4.13673
rclavicle 3.51352e-014 -1.98785e-014
rhumerus -34.3654 -5.81428 -76.6121
rradius 34.9049
rwrist 19.0486
rhand -22.4441 7.35975
rfingers 7.12502
rthumb 3.97991 -22.5828
lclavicle 3.51352e-014 -1.98785e-014
lhumerus 38.9468 -6.53003 56.5704
lradius 102.475
lwrist -0.842213
lhand -29.7098 18.4956
lfingers 7.12502
lthumb -3.03718 48.4538
rfemur -8.35163 6.56166 12.9578
rtibia 26.912
rfoot -17.5058 -3.15789
rtoes 3.38721
lfemur -0.163204 -2.63566 -23.6026
ltibia 13.0764
lfoot -10.5832 3.86251
ltoes -11.1305
692
root 0.08867 17.9462 -0.893082 1.88716 -7.58267 2.77523
lowerback 0.0945208 -1.68235 -5.22251
upperback 0.134019 -2.25036 2.22305
thorax 0.376595 -1.14354 5.22021
lowerneck -21.7799 0.906385 -9.9449
upperneck 6.80142 3.06186 7.13686
head 5.2598 1.77863 4.20233
rclavicle 3.20043e-014 -7.95139e-015
rhumerus -34.4042 -5.78191 -76.6413
rradius 34.8745
rwrist 19.0895
rhand -22.5566 6.98644
rfingers 7.12502
rthumb 3.87124 -22.9581
lclavicle 3.20043e-014 -7.95139e-015
lhumerus 38.2902 -7.09569 56.8939
lradius 102.585
lwrist -1.28208
lhand -30.032 18.4076
lfingers 7.12502
lthumb -3.3484 48.3611
rfemur -8.43306 6.5305 12.9288
rtibia 26.8898
rfoot -17.4885 -3.15897
rtoes 3.65659
lfemur -0.284181 -2.65519 -23.6143
ltibia 13.1058
lfoot -10.5715 3.8353
ltoes -11.1646
693
root 0.0897822 17.9474 -0.894315 1.93703 -7.59945 2.76356
lowerback -0.00584578 -1.68979 -5.21565
upperback 0.184951 -2.25496 2.22495
thorax 0.48589 -1.15045 5.21394
lowerneck -21.6741 0.894817 -9.95119
upperneck 6.89353 3.04187 7.0928
head 5.27515 1.76237 4.18678
rclavicle 8.39865e-015 -9.54166e-015
rhumerus -34.2537 -5.89088 -76.6322
rradius 34.752
rwrist 19.2135
rhand -22.6048 6.93095
rfingers 7.12502
rthumb 3.82472 -23.0145
lclavicle 8.39865e-015 -9.54166e-015
lhumerus 37.6729 -7.50791 57.1811
lradius 102.996
lwrist -1.01211
lhand -29.7797 18.7478
lfingers 7.12502
lthumb -3.10476 48.7049
rfemur -8.49014 6.51853 12.9284
rtibia 26.8787
rfoot -17.4609 -3.12426
rtoes 4.03751
lfemur -0.332645 -2.69391 -23.6049
ltibia 13.0879
lfoot -10.5202 3.83617
ltoes -11.0462
694
root 0.0905624 17.9486 -0.898285 1.95555 -7.62537 2.73585
lowerback -0.018531 -1.66317 -5.19303
upperback 0.196653 -2.21872 2.22789
thorax 0.49964 -1.13293 5.20406
lowerneck -21.3444 0.866848 -9.88489
upperneck 6.84994 2.97523 6.9402
head 5.21965 1.71604 4.11241
rclavicle 1.99779e-014 -7.95139e-015
rhumerus -34.1587 -6.05631 -76.6021
rradius 34.584
rwrist 19.3081
rhand -22.6188 7.12252
rfingers 7.12502
rthumb 3.81123 -22.8231
lclavicle 1.99779e-014 -7.95139e-015
lhumerus 37.0768 -7.96994 57.5602
lradius 103.57
lwrist 0.0571676
lhand -28.8108 19.4802
lfingers 7.12502
lthumb -2.16897 49.4489
rfemur -8.51421 6.57266 12.9573
rtibia 26.8596
rfoot -17.4234 -3.19886
rtoes 3.78336
lfemur -0.36057 -2.70966 -23.5775
ltibia 13.0864
lfoot -10.4786 3.86183
ltoes -11.028
695
root 0.0903323 17.9492 -0.903905 1.93264 -7.66095 2.70629
lowerback 0.0751856 -1.63366 -5.17292
upperback 0.204287 -2.18366 2.22059
thorax 0.449334 -1.11392 5.18835
lowerneck -21.225 0.828132 -9.9125
upperneck 7.0596 2.91169 6.97444
head 5.27265 1.68217 4.12405
rclavicle 9.49197e-015 -1.11319e-014
rhumerus -34.1688 -6.15297 -76.593
rradius 34.5699
rwrist 19.3194
rhand -22.5057 7.35065
rfingers 7.12502
rthumb 3.92045 -22.593
lclavicle 9.49197e-015 -1.11319e-014
lhumerus 36.4317 -8.4832 57.8833
lradius 103.937
lwrist 0.506795
lhand -28.4197 19.9872
lfingers 7.12502
lthumb -1.7913 49.9595
rfemur -8.50477 6.63237 12.9971
rtibia 26.8394
rfoot -17.3855 -3.24346
rtoes 3.49422
lfemur -0.359827 -2.64511 -23.5367
ltibia 13.0924
lfoot -10.4501 3.84586
ltoes -10.9692
696
root 0.0909907 17.9496 -0.904672 1.93738 -7.72454 2.68351
lowerback 0.0767251 -1.61621 -5.15509
upperback 0.202067 -2.16049 2.2259
thorax 0.442738 -1.10201 5.18416
lowerneck -21.0734 0.828951 -9.98987
upperneck 7.25032 2.90755 7.03998
head 5.30818 1.67817 4.15839
rclavicle -1.0635e-014 6.36111e-015
rhumerus -34.2329 -6.17468 -76.5725
rradius 34.5624
rwrist 19.3255
rhand -22.4538 7.48323
rfingers 7.12502
rthumb 3.97052 -22.4595
lclavicle -1.0635e-014 6.36111e-015
lhumerus 35.7267 -8.99269 58.2536
lradius 104.23
lwrist 0.608954
lhand -28.3153 20.4356
lfingers 7.12502
lthumb -1.69042 50.4087
rfemur -8.52478 6.6528 13.0121
rtibia 26.8315
rfoot -17.3509 -3.21815
rtoes 3.35797
lfemur -0.358527 -2.58134 -23.5168
ltibia 13.0913
lfoot -10.4302 3.84528
ltoes -10.9305
697
root 0.0928953 17.9497 -0.906312 1.91973 -7.74429 2.70447
lowerback 0.0643582 -1.61561 -5.17127
upperback 0.237301 -2.15869 2.21552
thorax 0.486002 -1.10331 5.18149
lowerneck -20.7736 0.834045 -10.0202
upperneck 7.16959 2.89797 7.02302
head 5.23683 1.66871 4.1491
rclavicle -1.85367e-014 1.35174e-014
rhumerus -34.2188 -6.24901 -76.5594
rradius 34.4986
rwrist 19.4031
rhand -22.4399 7.44899
rfingers 7.12502
rthumb 3.98399 -22.4935
lclavicle -1.85367e-014 1.35174e-014
lhumerus 35.0811 -9.45053 58.5949
lradius 104.568
lwrist 0.681259
lhand -28.2294 20.9093
lfingers 7.12502
lthumb -1.60744 50.883
rfemur -8.52192 6.64434 12.9797
rtibia 26.835
rfoot -17.3193 -3.20333
rtoes 3.36083
lfemur -0.330018 -2.57333 -23.5504
ltibia 13.0741
lfoot -10.41 3.87478
ltoes -10.9867
698
root 0.0945372 17.9498 -0.909698 1.94138 -7.74746 2.70356
lowerback 0.0126215 -1.61614 -5.15487
upperback 0.316915 -2.15605 2.19703
thorax 0.595497 -1.10712 5.14982
lowerneck -20.6545 0.802571 -10.0115
upperneck 7.18489 2.84682 6.98519
head 5.22841 1.63926 4.12864
rclavicle 1.3418e-014 3.18055e-015
rhumerus -34.0778 -6.3489 -76.5816
rradius 34.4135
rwrist 19.5113
rhand -22.4586 7.22027
rfingers 7.12502
rthumb 3.96593 -22.7226
lclavicle 1.3418e-014 3.18055e-015
lhumerus 34.5667 -9.84113 58.9222
lradius 104.878
lwrist 0.712313
lhand -28.231 21.4581
lfingers 7.12502
lthumb -1.60899 51.4318
rfemur -8.56692 6.6433 12.9723
rtibia 26.8536
rfoot -17.3113 -3.1824
rtoes 3.38134
lfemur -0.346425 -2.53711 -23.5449
ltibia 13.0406
lfoot -10.4122 3.82624
ltoes -11.1677
699
root 0.0965379 17.9504 -0.913086 1.97623 -7.75852 2.75225
lowerback -0.0350337 -1.62327 -5.19339
upperback 0.356334 -2.16267 2.17553
thorax 0.664387 -1.11358 5.14692
lowerneck -20.6192 0.790541 -10.213
upperneck 7.45329 2.85219 7.17392
head 5.30215 1.64604 4.22793
rclavicle -8.84592e-015 -1.82882e-014
rhumerus -34.0125 -6.27571 -76.6412
rradius 34.4051
rwrist 19.4517
rhand -22.4591 7.06566
rfingers 7.12502
rthumb 3.96543 -22.8772
lclavicle -8.84592e-015 -1.82882e-014
lhumerus 33.9562 -10.2336 59.2845
lradius 105.124
lwrist 0.817209
lhand -28.2232 21.9665
lfingers 7.12502
lthumb -1.60144 51.9403
rfemur -8.64272 6.63045 12.9022
rtibia 26.8717
rfoot -17.2902 -3.1713
rtoes 3.43153
lfemur -0.390468 -2.52299 -23.6022
ltibia 13.0083
lfoot -10.4095 3.8318
ltoes -11.3801
700
root 0.098036 17.95 -0.916319 1.98676 -7.80554 2.80721
lowerback -0.0299446 -1.62385 -5.2658
upperback 0.327131 -2.16383 2.1734
thorax 0.634222 -1.11284 5.18649
lowerneck -20.4068 0.813057 -10.3351
upperneck 7.72928 2.87975 7.23943
head 5.35131 1.65356 4.27307
rclavicle -1.03368e-014 1.11319e-014
rhumerus -34.1185 -6.1659 -76.6483
rradius 34.4233
rwrist 19.4525
rhand -22.3802 7.17931
rfingers 7.12502
rthumb 4.04166 -22.7621
lclavicle -1.03368e-014 1.11319e-014
lhumerus 33.1889 -10.7239 59.767
lradius 105.306
lwrist 0.973304
lhand -28.2323 22.3532
lfingers 7.12502
lthumb -1.61022 52.3269
rfemur -8.68574 6.66653 12.8251
rtibia 26.8796
rfoot -17.2817 -3.14027
rtoes 3.82312
lfemur -0.413422 -2.49651 -23.6679
ltibia 12.9813
lfoot -10.381 3.84835
ltoes -11.3355
701
root 0.0995804 17.9507 -0.91609 1.97306 -7.87527 2.82114
lowerback -0.0753204 -1.63635 -5.30392
upperback 0.344982 -2.17822 2.20195
thorax 0.682594 -1.12231 5.23599
lowerneck -20.0869 0.855539 -10.3114
upperneck 7.75565 2.91807 7.08081
head 5.30852 1.65569 4.21499
rclavicle -1.5704e-014 1.19271e-014
rhumerus -34.1489 -6.05668 -76.64
rradius 34.3965
rwrist 19.4995
rhand -22.3335 7.3624
rfingers 7.12502
rthumb 4.08675 -22.5782
lclavicle -1.5704e-014 1.19271e-014
lhumerus 32.4105 -11.1183 60.2666
lradius 105.541
lwrist 1.1492
lhand -28.3444 22.4602
lfingers 7.12502
lthumb -1.71858 52.433
rfemur -8.68068 6.70563 12.7974
rtibia 26.877
rfoot -17.2944 -3.11217
rtoes 3.79502
lfemur -0.370542 -2.42159 -23.6943
ltibia 12.9433
lfoot -10.3675 3.86505
ltoes -11.136
702
root 0.101456 17.951 -0.915429 1.95959 -7.90286 2.77945
lowerback -0.123287 -1.64736 -5.24031
upperback 0.410352 -2.19012 2.20356
thorax 0.776155 -1.13247 5.19862
lowerneck -19.9446 0.86707 -10.2694
upperneck 7.78171 2.91992 6.98558
head 5.2962 1.64809 4.17505
rclavicle 4.74101e-014 -1.51076e-014
rhumerus -34.1276 -6.06327 -76.6878
rradius 34.4259
rwrist 19.5444
rhand -22.3475 7.2695
rfingers 7.12502
rthumb 4.0732 -22.6713
lclavicle 4.74101e-014 -1.51076e-014
lhumerus 31.72 -11.5248 60.7209
lradius 105.856
lwrist 1.22631
lhand -28.3752 22.75
lfingers 7.12502
lthumb -1.7483 52.7225
rfemur -8.65983 6.72479 12.8349
rtibia 26.8588
rfoot -17.2903 -3.10708
rtoes 3.68385
lfemur -0.365255 -2.34473 -23.6557
ltibia 12.943
lfoot -10.3925 3.8293
ltoes -11.0485
